<svg width="30" height="30" viewBox="0 0 30 30" fill="none" xmlns="http://www.w3.org/2000/svg">
<rect x="0.000244141" width="30" height="30" rx="15" fill="#00A0EC"/>
<path d="M13.1683 14.704C13.6403 14.792 14.0283 15.028 14.3323 15.412C14.6363 15.796 14.7883 16.236 14.7883 16.732C14.7883 17.18 14.6763 17.576 14.4523 17.92C14.2363 18.256 13.9203 18.52 13.5043 18.712C13.0883 18.904 12.5963 19 12.0283 19H8.41628V10.624H11.8723C12.4403 10.624 12.9283 10.716 13.3363 10.9C13.7523 11.084 14.0643 11.34 14.2723 11.668C14.4883 11.996 14.5963 12.368 14.5963 12.784C14.5963 13.272 14.4643 13.68 14.2003 14.008C13.9443 14.336 13.6003 14.568 13.1683 14.704ZM10.0963 14.08H11.6323C12.0323 14.08 12.3403 13.992 12.5563 13.816C12.7723 13.632 12.8803 13.372 12.8803 13.036C12.8803 12.7 12.7723 12.44 12.5563 12.256C12.3403 12.072 12.0323 11.98 11.6323 11.98H10.0963V14.08ZM11.7883 17.632C12.1963 17.632 12.5123 17.536 12.7363 17.344C12.9683 17.152 13.0843 16.88 13.0843 16.528C13.0843 16.168 12.9643 15.888 12.7243 15.688C12.4843 15.48 12.1603 15.376 11.7523 15.376H10.0963V17.632H11.7883ZM18.9192 19.084C18.3352 19.084 17.8072 18.984 17.3352 18.784C16.8712 18.584 16.5032 18.296 16.2312 17.92C15.9592 17.544 15.8192 17.1 15.8112 16.588H17.6112C17.6352 16.932 17.7552 17.204 17.9712 17.404C18.1952 17.604 18.4992 17.704 18.8832 17.704C19.2752 17.704 19.5832 17.612 19.8072 17.428C20.0312 17.236 20.1432 16.988 20.1432 16.684C20.1432 16.436 20.0672 16.232 19.9152 16.072C19.7632 15.912 19.5712 15.788 19.3392 15.7C19.1152 15.604 18.8032 15.5 18.4032 15.388C17.8592 15.228 17.4152 15.072 17.0712 14.92C16.7352 14.76 16.4432 14.524 16.1952 14.212C15.9552 13.892 15.8352 13.468 15.8352 12.94C15.8352 12.444 15.9592 12.012 16.2072 11.644C16.4552 11.276 16.8032 10.996 17.2512 10.804C17.6992 10.604 18.2112 10.504 18.7872 10.504C19.6512 10.504 20.3512 10.716 20.8872 11.14C21.4312 11.556 21.7312 12.14 21.7872 12.892H19.9392C19.9232 12.604 19.7992 12.368 19.5672 12.184C19.3432 11.992 19.0432 11.896 18.6672 11.896C18.3392 11.896 18.0752 11.98 17.8752 12.148C17.6832 12.316 17.5872 12.56 17.5872 12.88C17.5872 13.104 17.6592 13.292 17.8032 13.444C17.9552 13.588 18.1392 13.708 18.3552 13.804C18.5792 13.892 18.8912 13.996 19.2912 14.116C19.8352 14.276 20.2792 14.436 20.6232 14.596C20.9672 14.756 21.2632 14.996 21.5112 15.316C21.7592 15.636 21.8832 16.056 21.8832 16.576C21.8832 17.024 21.7672 17.44 21.5352 17.824C21.3032 18.208 20.9632 18.516 20.5152 18.748C20.0672 18.972 19.5352 19.084 18.9192 19.084Z" fill="white"/>
</svg>
